# xmcd CD database file
#
# Track frame offsets:
#	150
#	15591
#	33913
#	49586
#	68398
#	85342
#	107752
#	120093
#	143274
#	158880
#	173259
#	187527
#	205730
#
# Disc length: 2913 seconds
#
# Revision: 0
# Processed by: cddbd v1.5.2PL0 Copyright (c) Steve Scherf et al.
# Submitted via: CDex 1.70beta2
#
DISCID=840b5f0d
DTITLE=Peter Herbolzheimer Orchestra - getting down to BRASS TRACKS
DYEAR=2006
DGENRE=Jazz
TTITLE0=Get Me To The Church On Time
TTITLE1=Just The Way You Are
TTITLE2=Moon River
TTITLE3=Get On My Cloud
TTITLE4=Swing-A-Ling
TTITLE5=Things Ain't What They Used To Be
TTITLE6=Dinner For One
TTITLE7=Misty
TTITLE8=Don't Get Around Much Anymore
TTITLE9=Little Red Apple
TTITLE10=I've Got My Love To Keep Me Warm
TTITLE11=Apple Honey
TTITLE12=Oh, Bernadine
EXTD=YEAR: 2006
EXTT0=
EXTT1=
EXTT2=
EXTT3=
EXTT4=
EXTT5=
EXTT6=
EXTT7=
EXTT8=
EXTT9=
EXTT10=
EXTT11=
EXTT12=
PLAYORDER=
